<svg xmlns="http://www.w3.org/2000/svg" width="160" height="160" viewBox="0 0 160 160">
  <g fill="none" stroke="#F5EDE1" stroke-width="1">
    <g transform="translate(0,0)">
      <rect x="-13" y="-13" width="26" height="26" transform="rotate(45 0 0)"/>
      <circle cx="0" cy="0" r="5"/>
    </g>
    <g transform="translate(80,80)">
      <rect x="-13" y="-13" width="26" height="26" transform="rotate(45 0 0)"/>
      <circle cx="0" cy="0" r="5"/>
    </g>
    <g transform="translate(160,0)">
      <rect x="-13" y="-13" width="26" height="26" transform="rotate(45 0 0)"/>
      <circle cx="0" cy="0" r="5"/>
    </g>
    <g transform="translate(0,160)">
      <rect x="-13" y="-13" width="26" height="26" transform="rotate(45 0 0)"/>
      <circle cx="0" cy="0" r="5"/>
    </g>
    <g transform="translate(160,160)">
      <rect x="-13" y="-13" width="26" height="26" transform="rotate(45 0 0)"/>
      <circle cx="0" cy="0" r="5"/>
    </g>
    <path d="M40,0 Q40,40 0,40 Q40,40 40,80 Q40,40 80,40 Q40,40 40,0 Z"/>
    <path d="M120,80 Q120,120 80,120 Q120,120 120,160 Q120,120 160,120 Q120,120 120,80 Z"/>
  </g>
</svg>
