<svg xmlns="http://www.w3.org/2000/svg" viewBox="0 0 400 320" fill="none">
  <g stroke="#FBF6EF" stroke-width="1.4" stroke-linejoin="round">
    <path d="M40 190 L200 90 L360 190" />
    <rect x="70" y="190" width="260" height="100" />
    <rect x="115" y="220" width="36" height="70" />
    <rect x="250" y="215" width="40" height="40" />
    <line x1="200" y1="90" x2="200" y2="60"/>
  </g>
  <g stroke="#D8BC85" stroke-width="1.2">
    <path d="M20 300 C90 280 140 310 210 292 C280 274 320 300 380 286" />
    <path d="M20 312 C90 296 140 320 210 306 C280 292 320 314 380 300" opacity="0.6"/>
  </g>
  <g stroke="#FBF6EF" stroke-width="1" stroke-linecap="round" opacity="0.85">
    <line x1="330" y1="150" x2="336" y2="70"/>
    <path d="M336 70 C312 60 296 40 288 18"/>
    <path d="M336 70 C360 58 372 36 376 14"/>
  </g>
</svg>
